<svg xmlns="http://www.w3.org/2000/svg" viewBox="0 0 110 110" width="110" height="110"><rect width="110" height="110" fill="#1a1a1a"></rect><path d="M38 45 L32 45 C26 45 22 47 20 50 C16 62 16 82 20 94 C22 102 29 106 39 106 L71 106 C81 106 88 102 90 94 C94 82 94 62 90 50 C88 47 84 45 78 45 L72 45" fill="none" stroke="#f4f2ee" stroke-width="5.5" stroke-linecap="round" stroke-linejoin="round"></path><path d="M38 30 C36 20 37 11 41 5 C45 11 47 20 47 28" fill="none" stroke="#f4f2ee" stroke-width="5.5" stroke-linecap="round" stroke-linejoin="round"></path><path d="M63 28 C63 20 65 11 69 5 C73 11 74 20 72 30" fill="none" stroke="#f4f2ee" stroke-width="5.5" stroke-linecap="round" stroke-linejoin="round"></path><path d="M47 28 C50 31 60 31 63 28" fill="none" stroke="#f4f2ee" stroke-width="4.4" stroke-linecap="round" stroke-linejoin="round"></path><path d="M38 30 L37 54" fill="none" stroke="#f4f2ee" stroke-width="5.5" stroke-linecap="round" stroke-linejoin="round"></path><path d="M72 30 L73 55" fill="none" stroke="#f4f2ee" stroke-width="5.5" stroke-linecap="round" stroke-linejoin="round"></path><path d="M20 50 C36 56 74 56 90 50" fill="none" stroke="#f4f2ee" stroke-width="3.8499999999999996" stroke-linecap="round" stroke-linejoin="round"></path><circle cx="47" cy="43" r="3.0250000000000004" fill="#f4f2ee"></circle><circle cx="63" cy="43" r="3.0250000000000004" fill="#f4f2ee"></circle><path d="M42 92 L60 74" fill="none" stroke="#f4f2ee" stroke-width="2.475" stroke-linecap="round" stroke-linejoin="round"></path><path d="M50 98 L68 80" fill="none" stroke="#f4f2ee" stroke-width="2.475" stroke-linecap="round" stroke-linejoin="round"></path><path d="M50 74 L68 92" fill="none" stroke="#f4f2ee" stroke-width="2.475" stroke-linecap="round" stroke-linejoin="round"></path><path d="M42 80 L60 98" fill="none" stroke="#f4f2ee" stroke-width="2.475" stroke-linecap="round" stroke-linejoin="round"></path></svg>